<svg width="145" height="30" viewBox="0 0 145 30" fill="none" xmlns="http://www.w3.org/2000/svg">
<g clip-path="url(#clip0_954_377)">
<path d="M22.6327 0H7.01152C3.13917 0 0 3.12319 0 6.97583V22.5175C0 26.3701 3.13917 29.4933 7.01152 29.4933H22.6327C26.5051 29.4933 29.6442 26.3701 29.6442 22.5175V6.97583C29.6442 3.12319 26.5051 0 22.6327 0Z" fill="#C0FF12"/>
<path d="M18.1525 17.1221C21.303 20.6116 23.7493 23.4789 17.4091 23.4789H7.88578C5.99945 23.4984 5.3936 22.2505 6.62823 22.0322C8.74053 21.6543 10.0767 21.5696 12.7948 19.9372C16.6101 17.6467 17.0653 15.9198 18.1525 17.1221Z" fill="#0D0D0D"/>
<path d="M12.1793 18.8877C13.712 17.7245 15.3134 16.6069 16.2074 15.7891C17.6255 14.5054 19.1548 15.6164 20.2748 17.1771C21.6798 19.1614 22.4723 21.3574 23.0225 17.744C23.5039 14.5901 22.04 6.09263 9.51356 4.89361C8.66209 4.81216 8.28875 5.1282 8.70794 5.63648C13.4696 11.3808 10.4797 16.936 8.3346 19.1418C6.33365 21.1977 10.5845 20.103 12.1793 18.8877Z" fill="#0D0D0D"/>
<path d="M39.575 8.971H49.925V10.765H45.785V21H43.715V10.765H39.575V8.971ZM51.075 12.582C51.098 11.846 51.236 11.225 51.489 10.719C51.742 10.213 52.087 9.799 52.524 9.5C52.961 9.178 53.467 8.948 54.065 8.81C54.663 8.672 55.307 8.603 56.02 8.603C56.595 8.603 57.17 8.649 57.722 8.787C58.274 8.902 58.757 9.086 59.171 9.362C59.608 9.615 59.953 9.983 60.206 10.397C60.482 10.811 60.597 11.34 60.597 11.938V18.93C60.597 19.114 60.643 19.298 60.758 19.436C60.85 19.574 61.034 19.643 61.264 19.643C61.356 19.643 61.471 19.62 61.586 19.597C61.701 19.597 61.816 19.574 61.931 19.551V20.977C61.77 21.023 61.586 21.069 61.425 21.092C61.264 21.138 61.057 21.161 60.827 21.161C60.459 21.161 60.16 21.115 59.907 21.069C59.631 21 59.424 20.908 59.24 20.77C59.079 20.632 58.941 20.448 58.826 20.218C58.734 20.011 58.688 19.735 58.642 19.413C58.389 19.689 58.113 19.942 57.837 20.172C57.561 20.425 57.239 20.632 56.871 20.793C56.526 20.977 56.135 21.115 55.698 21.23C55.261 21.322 54.778 21.368 54.226 21.368C53.766 21.368 53.329 21.299 52.892 21.138C52.455 21 52.041 20.77 51.696 20.494C51.351 20.195 51.075 19.827 50.868 19.39C50.638 18.976 50.546 18.47 50.546 17.895C50.546 17.274 50.638 16.745 50.868 16.285C51.075 15.825 51.351 15.457 51.673 15.158C52.018 14.836 52.409 14.629 52.846 14.445C53.283 14.284 53.72 14.192 54.157 14.123L57.538 13.709C57.86 13.686 58.113 13.548 58.297 13.341C58.481 13.111 58.573 12.789 58.573 12.306C58.573 11.57 58.343 11.064 57.86 10.742C57.377 10.42 56.71 10.259 55.813 10.259C54.893 10.259 54.226 10.466 53.766 10.834C53.329 11.225 53.053 11.8 53.007 12.582H51.075ZM58.527 14.882C58.366 14.997 58.159 15.089 57.929 15.181C57.676 15.25 57.4 15.319 57.124 15.365C56.825 15.434 56.503 15.48 56.181 15.503L55.192 15.641C54.824 15.71 54.479 15.756 54.157 15.871C53.858 15.963 53.582 16.101 53.352 16.239C53.099 16.4 52.938 16.607 52.8 16.814C52.685 17.044 52.616 17.297 52.616 17.596C52.616 17.941 52.662 18.24 52.777 18.516C52.892 18.769 53.03 18.999 53.237 19.16C53.421 19.344 53.651 19.482 53.904 19.574C54.18 19.666 54.479 19.712 54.801 19.712C55.008 19.712 55.238 19.689 55.491 19.62C55.767 19.574 56.02 19.528 56.296 19.413C56.595 19.321 56.848 19.183 57.124 19.045C57.377 18.884 57.63 18.7 57.837 18.493C58.044 18.263 58.205 18.033 58.343 17.734C58.458 17.458 58.527 17.159 58.527 16.814V14.882ZM66.2013 4.302C66.2933 4.785 66.5003 5.153 66.7993 5.429C67.1213 5.705 67.5813 5.866 68.1563 5.866C68.7773 5.866 69.2373 5.728 69.5363 5.452C69.8353 5.176 70.0423 4.785 70.1343 4.302H72.0433C72.0433 4.739 71.9513 5.153 71.7673 5.521C71.5603 5.889 71.3073 6.188 70.9853 6.441C70.6173 6.694 70.2263 6.901 69.7433 7.039C69.2603 7.177 68.7313 7.246 68.1563 7.246C67.6043 7.246 67.0753 7.177 66.5923 7.039C66.1323 6.901 65.7183 6.717 65.3733 6.464C65.0513 6.188 64.7983 5.889 64.5913 5.521C64.4073 5.176 64.3153 4.762 64.2923 4.302H66.2013ZM65.0283 18.194H65.0743L70.9853 8.971H73.3543V21H71.2613V11.777H71.2153L65.3273 21H62.9583V8.971H65.0283V18.194ZM81.6345 18.838H81.6805L84.9005 8.971H87.7295V21H85.7975V11.317H85.7515L82.5775 21H80.5995L77.4255 11.317H77.3795V21H75.4475V8.971H78.4605L81.6345 18.838ZM88.9028 8.971H99.2528V10.765H95.1128V21H93.0428V10.765H88.9028V8.971ZM104.635 18.769H104.681L107.878 8.971H110.155L105.555 21.483C105.325 22.104 105.118 22.656 104.911 23.116C104.727 23.576 104.543 23.99 104.336 24.312C104.152 24.634 103.968 24.887 103.784 25.094C103.6 25.301 103.37 25.462 103.163 25.577C102.91 25.692 102.68 25.784 102.381 25.807C102.105 25.853 101.783 25.876 101.415 25.876C101.116 25.876 100.886 25.853 100.725 25.83C100.541 25.807 100.38 25.784 100.265 25.738V23.875C100.403 23.921 100.587 23.967 100.794 24.013C101.001 24.059 101.254 24.082 101.484 24.082C101.852 24.082 102.174 23.99 102.404 23.806C102.657 23.622 102.818 23.369 102.956 23.024L103.623 21.322L99.1608 8.971H101.438L104.635 18.769ZM110.983 12.582C111.006 11.846 111.144 11.225 111.397 10.719C111.65 10.213 111.995 9.799 112.432 9.5C112.869 9.178 113.375 8.948 113.973 8.81C114.571 8.672 115.215 8.603 115.928 8.603C116.503 8.603 117.078 8.649 117.63 8.787C118.182 8.902 118.665 9.086 119.079 9.362C119.516 9.615 119.861 9.983 120.114 10.397C120.39 10.811 120.505 11.34 120.505 11.938V18.93C120.505 19.114 120.551 19.298 120.666 19.436C120.758 19.574 120.942 19.643 121.172 19.643C121.264 19.643 121.379 19.62 121.494 19.597C121.609 19.597 121.724 19.574 121.839 19.551V20.977C121.678 21.023 121.494 21.069 121.333 21.092C121.172 21.138 120.965 21.161 120.735 21.161C120.367 21.161 120.068 21.115 119.815 21.069C119.539 21 119.332 20.908 119.148 20.77C118.987 20.632 118.849 20.448 118.734 20.218C118.642 20.011 118.596 19.735 118.55 19.413C118.297 19.689 118.021 19.942 117.745 20.172C117.469 20.425 117.147 20.632 116.779 20.793C116.434 20.977 116.043 21.115 115.606 21.23C115.169 21.322 114.686 21.368 114.134 21.368C113.674 21.368 113.237 21.299 112.8 21.138C112.363 21 111.949 20.77 111.604 20.494C111.259 20.195 110.983 19.827 110.776 19.39C110.546 18.976 110.454 18.47 110.454 17.895C110.454 17.274 110.546 16.745 110.776 16.285C110.983 15.825 111.259 15.457 111.581 15.158C111.926 14.836 112.317 14.629 112.754 14.445C113.191 14.284 113.628 14.192 114.065 14.123L117.446 13.709C117.768 13.686 118.021 13.548 118.205 13.341C118.389 13.111 118.481 12.789 118.481 12.306C118.481 11.57 118.251 11.064 117.768 10.742C117.285 10.42 116.618 10.259 115.721 10.259C114.801 10.259 114.134 10.466 113.674 10.834C113.237 11.225 112.961 11.8 112.915 12.582H110.983ZM118.435 14.882C118.274 14.997 118.067 15.089 117.837 15.181C117.584 15.25 117.308 15.319 117.032 15.365C116.733 15.434 116.411 15.48 116.089 15.503L115.1 15.641C114.732 15.71 114.387 15.756 114.065 15.871C113.766 15.963 113.49 16.101 113.26 16.239C113.007 16.4 112.846 16.607 112.708 16.814C112.593 17.044 112.524 17.297 112.524 17.596C112.524 17.941 112.57 18.24 112.685 18.516C112.8 18.769 112.938 18.999 113.145 19.16C113.329 19.344 113.559 19.482 113.812 19.574C114.088 19.666 114.387 19.712 114.709 19.712C114.916 19.712 115.146 19.689 115.399 19.62C115.675 19.574 115.928 19.528 116.204 19.413C116.503 19.321 116.756 19.183 117.032 19.045C117.285 18.884 117.538 18.7 117.745 18.493C117.952 18.263 118.113 18.033 118.251 17.734C118.366 17.458 118.435 17.159 118.435 16.814V14.882ZM132.319 16.768C132.296 17.067 132.227 17.366 132.158 17.711C132.066 18.079 131.928 18.401 131.767 18.746C131.606 19.091 131.399 19.413 131.146 19.735C130.893 20.034 130.571 20.333 130.203 20.563C129.835 20.816 129.398 21 128.892 21.161C128.386 21.299 127.811 21.368 127.167 21.368C126.822 21.368 126.454 21.322 126.063 21.253C125.649 21.161 125.281 21 124.913 20.816C124.545 20.609 124.2 20.356 123.855 20.034C123.533 19.712 123.234 19.321 122.981 18.838C122.728 18.378 122.521 17.826 122.383 17.182C122.245 16.584 122.153 15.848 122.153 15.043C122.153 14.054 122.314 13.157 122.59 12.352C122.866 11.547 123.257 10.88 123.74 10.328C124.2 9.776 124.752 9.362 125.396 9.04C126.017 8.741 126.684 8.603 127.374 8.603C128.018 8.603 128.57 8.672 129.053 8.81C129.536 8.948 129.95 9.109 130.318 9.339C130.663 9.569 130.962 9.822 131.215 10.121C131.468 10.42 131.675 10.719 131.836 11.041C131.974 11.386 132.089 11.708 132.181 12.053C132.25 12.375 132.296 12.72 132.319 13.019H130.387C130.295 12.191 129.996 11.547 129.536 11.087C129.076 10.627 128.432 10.397 127.604 10.397C127.029 10.397 126.546 10.512 126.132 10.742C125.695 10.972 125.35 11.294 125.074 11.708C124.775 12.122 124.568 12.628 124.43 13.226C124.292 13.824 124.223 14.445 124.223 15.158C124.223 15.963 124.292 16.63 124.453 17.205C124.591 17.78 124.798 18.24 125.097 18.608C125.373 18.999 125.695 19.275 126.109 19.436C126.5 19.62 126.96 19.712 127.466 19.712C127.834 19.712 128.156 19.643 128.501 19.505C128.823 19.39 129.099 19.183 129.352 18.93C129.605 18.677 129.835 18.378 129.996 18.01C130.18 17.642 130.318 17.228 130.387 16.768H132.319ZM135.516 14.79L141.588 8.971H144.302L138.644 14.284L144.394 21H141.726L137.034 15.549L135.516 16.814V21H133.446V8.971H135.516V14.79Z" fill="white"/>
</g>
<defs>
<clipPath id="clip0_954_377">
<rect width="145" height="30" fill="white"/>
</clipPath>
</defs>
</svg>
