<svg width="158" height="30" viewBox="0 0 158 30" fill="none" xmlns="http://www.w3.org/2000/svg">
<path d="M22.6327 0H7.01152C3.13917 0 0 3.12319 0 6.97583V22.5175C0 26.3701 3.13917 29.4933 7.01152 29.4933H22.6327C26.5051 29.4933 29.6442 26.3701 29.6442 22.5175V6.97583C29.6442 3.12319 26.5051 0 22.6327 0Z" fill="#C0FF12"/>
<path d="M18.1525 17.1219C21.303 20.6114 23.7493 23.4787 17.4091 23.4787H7.88578C5.99945 23.4982 5.3936 22.2503 6.62823 22.032C8.74053 21.6541 10.0767 21.5694 12.7948 19.937C16.6101 17.6465 17.0653 15.9196 18.1525 17.1219Z" fill="#0D0D0D"/>
<path d="M12.1793 18.8879C13.712 17.7247 15.3134 16.6071 16.2074 15.7893C17.6255 14.5056 19.1548 15.6166 20.2748 17.1773C21.6798 19.1616 22.4723 21.3576 23.0225 17.7442C23.5039 14.5903 22.04 6.09287 9.51357 4.89385C8.6621 4.8124 8.28876 5.12844 8.70795 5.63672C13.4696 11.381 10.4797 16.9362 8.33461 19.142C6.33366 21.1979 10.5845 20.1032 12.1793 18.8879Z" fill="#0D0D0D"/>
<path d="M40.9719 7.89135H45.8286V22.247H48.1308V7.89135H53.0104V5.69531H40.9719V7.89135Z" fill="#0D0D0D"/>
<path d="M64.1876 12.2607C63.1593 10.8141 61.6823 10.0842 59.796 10.0842C58.9985 10.0753 58.2079 10.2322 57.4748 10.5447C56.7417 10.8572 56.0823 11.3185 55.5386 11.899C54.9614 12.4794 54.5065 13.1685 54.2006 13.9261C53.8947 14.6836 53.7439 15.4944 53.7571 16.3107C53.7408 17.1274 53.8885 17.9392 54.1916 18.6984C54.4947 19.4576 54.9471 20.149 55.5222 20.7321C56.0659 21.3126 56.7253 21.7739 57.4584 22.0864C58.1915 22.3989 58.9821 22.5558 59.7796 22.5469C61.6659 22.5469 63.1429 21.8138 64.1712 20.3704V22.2406H66.3523V10.3872H64.1876V12.2607ZM60.0481 20.4518C59.5048 20.4632 58.965 20.3635 58.4619 20.1589C57.9589 19.9544 57.5034 19.6493 57.1237 19.2626C56.7382 18.8782 56.4348 18.4204 56.2317 17.9165C56.0285 17.4126 55.9298 16.873 55.9414 16.3302C55.9306 15.7875 56.0296 15.2482 56.2327 14.7444C56.4359 14.2406 56.7388 13.7826 57.1237 13.3978C57.9098 12.6373 58.9631 12.2118 60.0596 12.2118C61.1561 12.2118 62.2094 12.6373 62.9955 13.3978C63.3796 13.7796 63.6829 14.234 63.8876 14.7343C64.0923 15.2346 64.1943 15.7706 64.1876 16.3107C64.1986 16.8537 64.0992 17.3933 63.8955 17.8972C63.6918 18.4011 63.3879 18.8589 63.0021 19.2431C62.6196 19.6357 62.1599 19.9457 61.6517 20.1536C61.1434 20.3616 60.5976 20.4631 60.0481 20.4518Z" fill="#0D0D0D"/>
<path d="M78.011 6.84546H71.5137V8.75803H78.011V6.84546Z" fill="#0D0D0D"/>
<path d="M71.7395 18.5002V10.3872H69.5781V22.2471H71.3269L77.7621 14.1374V22.2471H79.9202V10.3872H78.1714L71.7395 18.5002Z" fill="#0D0D0D"/>
<path d="M88.7689 16.265L85.1239 10.4198L85.1043 10.3872H82.8086V22.2471H84.9667V13.8963L88.5953 19.7057L88.615 19.7383H88.949L92.5939 13.8963V22.2471H94.7292V10.3872H92.4335L88.7689 16.265Z" fill="#0D0D0D"/>
<path d="M96.3242 12.4888H100.356V22.2471H102.537V12.4888H106.545V10.3872H96.3242V12.4888Z" fill="#0D0D0D"/>
<path d="M113.665 19.4744L109.709 10.4263V10.3872H107.396L112.512 22.208L112.328 22.6055C111.673 24.2346 110.619 25.0133 109.211 24.9091H109.142V26.9389H109.201C109.319 26.9389 109.433 26.9389 109.548 26.9389C110.566 26.9458 111.556 26.6106 112.358 25.9875C113.347 25.1848 114.09 24.1227 114.503 22.9215L119.317 10.4784L119.353 10.3872H117.018L113.665 19.4744Z" fill="#0D0D0D"/>
<path d="M130.075 12.2607C129.05 10.814 127.573 10.0842 125.684 10.0842C124.886 10.0759 124.096 10.233 123.363 10.5455C122.63 10.8579 121.97 11.3189 121.426 11.899C120.851 12.4804 120.398 13.17 120.094 13.9275C119.79 14.6849 119.641 15.4951 119.655 16.3106C119.638 17.1271 119.786 17.9386 120.088 18.6977C120.391 19.4568 120.842 20.1484 121.416 20.732C121.96 21.3121 122.62 21.7731 123.353 22.0855C124.086 22.398 124.876 22.5551 125.674 22.5468C127.563 22.5468 129.04 21.8137 130.065 20.3703V22.2406H132.25V10.3872H130.065L130.075 12.2607ZM128.893 13.3782C129.278 13.763 129.581 14.221 129.784 14.7248C129.987 15.2286 130.086 15.7679 130.075 16.3106C130.087 16.8534 129.988 17.393 129.785 17.8969C129.582 18.4008 129.278 18.8586 128.893 19.243C128.108 20.0058 127.054 20.4329 125.957 20.4329C124.86 20.4329 123.806 20.0058 123.021 19.243C122.633 18.8596 122.328 18.4022 122.122 17.8983C121.917 17.3944 121.816 16.8543 121.826 16.3106C121.816 15.7677 121.915 15.2283 122.119 14.7245C122.323 14.2207 122.626 13.7629 123.011 13.3782C123.797 12.6177 124.851 12.1922 125.947 12.1922C127.044 12.1922 128.097 12.6177 128.883 13.3782H128.893Z" fill="#0D0D0D"/>
<path d="M144.095 18.3992C143.775 19.011 143.285 19.5187 142.683 19.8621C142.049 20.2283 141.327 20.4163 140.594 20.4062C140.057 20.4185 139.523 20.3217 139.024 20.1217C138.526 19.9217 138.074 19.6228 137.696 19.2431C137.31 18.8592 137.008 18.4012 136.806 17.897C136.604 17.3929 136.508 16.8531 136.523 16.3107C136.51 15.7684 136.606 15.229 136.808 14.725C137.009 14.221 137.311 13.7629 137.696 13.3783C138.346 12.7483 139.184 12.3466 140.085 12.2343C140.985 12.122 141.897 12.3051 142.683 12.756C143.271 13.1033 143.743 13.6156 144.039 14.2287L144.069 14.2938L145.903 13.2414L145.876 13.186C145.419 12.2359 144.688 11.4421 143.777 10.9053C142.826 10.3335 141.737 10.0258 140.626 10.0141C139.514 10.0025 138.42 10.2874 137.456 10.8392C136.493 11.391 135.695 12.1895 135.147 13.1518C134.599 14.114 134.32 15.2048 134.339 16.3107C134.343 17.4066 134.636 18.4823 135.189 19.4301C135.742 20.3779 136.536 21.1646 137.49 21.7115C138.445 22.2585 139.527 22.5464 140.629 22.5467C141.73 22.5469 142.813 22.2593 143.767 21.7128C144.69 21.1782 145.449 20.4031 145.962 19.4711L145.991 19.4125L144.131 18.3405L144.095 18.3992Z" fill="#0D0D0D"/>
<path d="M152.112 16.1314L157.813 10.3872H154.99L149.99 15.4765V10.3872H147.805V22.2471H149.99V16.7863L155.272 22.2471H158L152.112 16.1314Z" fill="#0D0D0D"/>
</svg>
