<svg width="30" height="30" viewBox="0 0 30 30" fill="none" xmlns="http://www.w3.org/2000/svg">
<g clip-path="url(#clip0_96_5)">
<path d="M22.6327 0H7.01152C3.13917 0 0 3.12319 0 6.97583V22.5175C0 26.3701 3.13917 29.4933 7.01152 29.4933H22.6327C26.5051 29.4933 29.6442 26.3701 29.6442 22.5175V6.97583C29.6442 3.12319 26.5051 0 22.6327 0Z" fill="#C0FF12"/>
<path d="M18.1527 17.1217C21.3032 20.6112 23.7495 23.4785 17.4093 23.4785H7.88602C5.99969 23.498 5.39384 22.2501 6.62847 22.0318C8.74077 21.6539 10.0769 21.5692 12.795 19.9368C16.6103 17.6463 17.0655 15.9194 18.1527 17.1217Z" fill="#0D0D0D"/>
<path d="M12.1793 18.8877C13.712 17.7245 15.3134 16.6069 16.2074 15.7891C17.6255 14.5054 19.1548 15.6164 20.2748 17.1771C21.6798 19.1614 22.4723 21.3574 23.0225 17.744C23.5039 14.5901 22.04 6.09263 9.51356 4.89361C8.66209 4.81216 8.28875 5.1282 8.70794 5.63648C13.4696 11.3808 10.4797 16.936 8.3346 19.1418C6.33365 21.1977 10.5845 20.103 12.1793 18.8877Z" fill="#0D0D0D"/>
</g>
<defs>
<clipPath id="clip0_96_5">
<rect width="30" height="30" fill="white"/>
</clipPath>
</defs>
</svg>
